Simulation
nRows=20
nColumns=15
endheader
time  TH_x TH_y TH_z SC_y  SC_z  SC_x  AC_y  AC_z  AC_x  GH_y  GH_z  GH_yy  EL_x  PS_y
5.362  0.000000  0.000000  0.000000  -25.30756878104252  4.290195280685406  5.428988077589871  58.69782412933298  23.124451987489845  8.91661172503855  -8.760030966148646  73.01650538203563  2.8139744454945537  13.53092162378157  120.000000
5.4156200000000005  0.000000  0.000000  0.000000  -25.376378870223803  4.3659272007141245  6.461058005926518  59.03824469995169  22.03256251988975  8.289766476146779  -8.705673005247233  73.38497926461973  2.507641613247437  13.589475118657255  120.000000
5.46924  0.000000  0.000000  0.000000  -25.310545204827452  4.39825562605016  6.918401695868613  59.53392607225456  20.8343463487181  7.643635795887589  -8.737080686653359  73.73187570796695  2.402832102929115  13.45904400879616  120.000000
5.52286  0.000000  0.000000  0.000000  -25.102070122529398  4.37299400195124  6.78040839519151  60.15588878682238  19.534471507641054  7.049515974144215  -8.86406508895915  73.99986519840431  2.487222123160353  13.197473367943992  120.000000
5.57648  0.000000  0.000000  0.000000  -24.751497507248242  4.268157839546527  6.047903631730006  60.86071482023054  18.14808084563195  6.603597935658466  -9.094255198007774  74.12055834933906  2.7414871647941177  12.889127598368443  120.000000
5.6301000000000005  0.000000  0.000000  0.000000  -24.268650287623988  4.061827128376253  4.743037671354954  61.59289071462733  16.70778285660002  6.405763374608069  -9.43010856379116  74.02272442058359  3.1593488610413982  12.612267918875233  120.000000
5.68372  0.000000  0.000000  0.000000  -23.672196972283214  3.7396645599486833  2.9120849432830314  62.291063402026865  15.266834172977495  6.535519774666641  -9.86610300872647  73.63858246075966  3.758938735628892  12.41407725479809  120.000000
5.73734  0.000000  0.000000  0.000000  -22.984358790523743  3.301077220721115  0.630174627128789  62.8961990407641  13.895358497418512  7.030026237787513  -10.388912455941005  72.90076050627971  4.578879999137774  12.302561004687448  120.000000
5.79096  0.000000  0.000000  0.000000  -22.225072180081394  2.760793928875769  -1.9926679570087609  63.35948568869849  12.668415423200146  7.872495328372995  -10.97537167229537  71.73538171613322  5.659954305657734  12.258638270952819  120.000000
5.8445800000000006  0.000000  0.000000  0.000000  -21.407532153267173  2.1540017910865092  -4.81640201295936  63.64638574873851  11.656991225811003  8.990272150221292  -11.590072018093478  70.05775622396858  7.024550385650093  12.252896342395845  120.000000
5.8982  0.000000  0.000000  0.000000  -20.545395422317256  1.5364337508467465  -7.688927927336085  63.73066523884075  10.92939915361143  10.269908805399723  -12.181467577361998  67.78289780286443  8.664601279027373  12.25805956224602  120.000000
5.95182  0.000000  0.000000  0.000000  -19.66641176832882  0.9850665722649379  -10.477555254171294  63.58816987522352  10.556897750638319  11.579221163292333  -12.678011240485045  64.85308154749356  10.542331192735702  12.253174789996912  120.000000
6.00544  0.000000  0.000000  0.000000  -18.82422267549434  0.5758459320087213  -13.099064951387554  63.19552988495537  10.612485707484723  12.80103263988752  -12.982995575684969  61.263776820792415  12.597988388696285  12.225206342794602  120.000000
6.059060000000001  0.000000  0.000000  0.000000  -18.10226428355843  0.3559806447440996  -15.507994787371961  62.540162429257855  11.134797061903798  13.849347724800115  -12.974784787669297  57.07277365452761  14.755892659346324  12.172437853670887  120.000000
6.11268  0.000000  0.000000  0.000000  -17.595898595109837  0.33489456351102265  -17.666536502260648  61.63345054885985  12.093022230056357  14.664078999762276  -12.534467141827507  52.38864536223105  16.9318959171985  12.103215266083184  120.000000
6.1663  0.000000  0.000000  0.000000  -17.38002120957232  0.48202179848932186  -19.509506762767312  60.51226246550886  13.372489678850902  15.21205596833661  -11.590062999861162  47.34976958167355  19.052713737707748  12.033269280768765  120.000000
6.21992  0.000000  0.000000  0.000000  -17.468270784020895  0.7417226808752652  -20.943176338786802  59.24766205049221  14.804265615486202  15.484200738456778  -10.13683084764008  42.11348871840684  21.067955859910498  11.9869622043788  120.000000
6.273540000000001  0.000000  0.000000  0.000000  -17.800232299917603  1.0554125955977431  -21.889930151493584  57.94725363433835  16.231686786881923  15.496954259105513  -8.220728783144956  36.849812830405554  22.944632909236116  12.000112702669098  120.000000
6.32716  0.000000  0.000000  0.000000  -18.286044705462626  1.3733090368010783  -22.32968755601031  56.726361532825955  17.551840792793755  15.290660156025304  -5.929130197191697  31.733190522644687  24.665654523118903  12.11294094980849  120.000000
6.38078  0.000000  0.000000  0.000000  -18.841830734588648  1.6675787506445683  -22.29904515236659  55.68294124745984  18.707365416315447  14.913095320643157  -3.3966553939544895  26.923496308100553  26.245960606914686  12.359801931876776  120.000000
